# xmcd
# 
# Track frame offsets:
#     150
#     15008
#     31188
#     47663
#     66599
#     89030
#     104537
#     122153
#     140195
#     159380
#     173534
# 
# Disc length: 2583
# 
# Revision: 5
# Processed by: cddbd v1.5.2PL0 Copyright (c) Steve Scherf et al.
# Submitted via: fre:ac v1.0.31
# 
DISCID=900a150b
DTITLE=Garbage - Not Your Kind Of People
DYEAR=2012
DGENRE=Rock/Pop
TTITLE0=Automatic Systematic Habit
TTITLE1=Big Bright World
TTITLE2=Blood For Poppies
TTITLE3=Control
TTITLE4=Not Your Kind Of People
TTITLE5=Felt
TTITLE6=I Hate Love
TTITLE7=Sugar
TTITLE8=Battle In Me
TTITLE9=Man On A Wire
TTITLE10=Beloved Freak
EXTD=
EXTT0=
EXTT1=
EXTT2=
EXTT3=
EXTT4=
EXTT5=
EXTT6=
EXTT7=
EXTT8=
EXTT9=
EXTT10=
PLAYORDER=
